HIERARCHY
ROOT Hips
{
	OFFSET 0.000000 0.000000 0.000000
	CHANNELS 6 Xposition Yposition Zposition Zrotation Yrotation Xrotation 
	JOINT LHipJoint
	{
		OFFSET 0.000000 0.000000 0.000000
		CHANNELS 3 Zrotation Yrotation Xrotation
		JOINT LeftUpLeg
		{
			OFFSET 1.363060 -1.794630 0.839290
			CHANNELS 3 Zrotation Yrotation Xrotation
			JOINT LeftLeg
			{
				OFFSET 2.448110 -6.726130 0.000000
				CHANNELS 3 Zrotation Yrotation Xrotation
				JOINT LeftFoot
				{
					OFFSET 2.562200 -7.039590 0.000000
					CHANNELS 3 Zrotation Yrotation Xrotation
					JOINT LeftToeBase
					{
						OFFSET 0.157640 -0.433110 2.322550
						CHANNELS 3 Zrotation Yrotation Xrotation
						End Site
						{
							OFFSET 0.000000 0.000000 0.000000
						}
					}
				}
			}
		}
	}
	JOINT RHipJoint
	{
		OFFSET 0.000000 0.000000 0.000000
		CHANNELS 3 Zrotation Yrotation Xrotation
		JOINT RightUpLeg
		{
			OFFSET -1.305520 -1.794630 0.839290
			CHANNELS 3 Zrotation Yrotation Xrotation
			JOINT RightLeg
			{
				OFFSET -2.542530 -6.985550 0.000000
				CHANNELS 3 Zrotation Yrotation Xrotation
				JOINT RightFoot
				{
					OFFSET -2.568260 -7.056230 0.000000
					CHANNELS 3 Zrotation Yrotation Xrotation
					JOINT RightToeBase
					{
						OFFSET -0.164730 -0.452590 2.363150
						CHANNELS 3 Zrotation Yrotation Xrotation
						End Site
						{
							OFFSET 0.000000 0.000000 0.000000
						}
					}
				}
			}
		}
	}
}
MOTION
Frames: 25
Frame Time: 0.008333
7.905357 15.125382 3.250225 43.159589 -85.893623 3.734537 -10.758820 0.435546 -4.060524 -12.187060 6.149348 -54.493309 -1.891746 4.835052 64.129208 0.114995 -4.017683 -18.505123 0.493400 -0.000000 -81.638800 8.971640 1.849467 5.395373 7.336418 4.250398 -94.991448 3.707966 -4.191073 33.291976 -1.251364 -5.829855 5.980584 -3.174400 -0.000000 -58.963399
7.761719 15.146775 3.208349 44.176236 -86.096006 2.830775 -10.796883 0.410495 -4.036128 -11.809461 6.345414 -54.418586 -1.746540 4.832352 64.278326 0.040571 -4.091963 -16.780206 0.463201 0.000000 -83.455100 8.945732 1.782912 5.318883 7.511812 4.588360 -94.990537 3.620280 -4.333696 34.455253 -1.208419 -5.480109 5.207655 -2.948900 0.000000 -57.619300
7.619139 15.170710 3.165658 45.266254 -86.293044 1.863887 -10.831806 0.380827 -4.017440 -11.469960 6.558642 -54.440944 -1.583475 4.840086 64.503630 -0.020530 -4.115298 -14.881492 0.403900 0.000000 -84.886599 8.919173 1.708261 5.256858 7.707657 4.935202 -94.897563 3.557202 -4.439045 35.444919 -1.178222 -5.142060 4.249918 -2.719300 -0.000001 -56.263500
7.477653 15.196678 3.121901 46.568943 -86.459025 0.698838 -10.858556 0.346308 -4.001355 -11.190441 6.761751 -54.561042 -1.404145 4.853406 64.806495 -0.061758 -4.063191 -12.838303 0.315500 -0.000000 -85.762200 8.899111 1.628159 5.211557 7.902213 5.257705 -94.736297 3.514528 -4.512208 36.260381 -1.160958 -4.831503 3.197079 -2.499800 -0.000000 -54.998400
7.337532 15.224379 3.077461 48.055512 -86.584231 -0.636886 -10.876553 0.306433 -3.984301 -10.973672 6.940527 -54.782132 -1.211588 4.870986 65.190008 -0.079190 -3.923463 -10.689378 0.204700 0.000000 -85.938200 8.886699 1.544810 5.179311 8.099649 5.535768 -94.524733 3.491394 -4.560307 36.913515 -1.153569 -4.550771 2.120750 -2.297000 0.000000 -53.834000
7.198777 15.253358 3.032612 49.734312 -86.659654 -2.146644 -10.884341 0.261018 -3.963007 -10.826245 7.077464 -55.104999 -1.011025 4.890445 65.652398 -0.069833 -3.682835 -8.499259 0.083500 0.000000 -85.275700 8.884089 1.460144 5.158595 8.294804 5.753038 -94.286355 3.485154 -4.589920 37.418432 -1.152457 -4.299488 1.086388 -2.115299 0.000000 -52.815301
7.061695 15.283315 2.987701 51.582189 -86.681924 -3.805563 -10.881173 0.210108 -3.935100 -10.751303 7.158665 -55.528427 -0.808876 4.910408 66.189890 -0.033150 -3.332704 -6.352009 -0.031500 -0.000000 -83.666000 8.891930 1.375918 5.147300 8.484414 5.901103 -94.041497 3.493140 -4.606857 37.791822 -1.153358 -4.072845 0.143145 -1.956500 -0.000000 -51.976900
6.926599 15.314047 2.942994 53.589021 -86.650402 -5.602723 -10.866624 0.154042 -3.900099 -10.752250 7.173843 -56.046576 -0.611987 4.929984 66.795513 0.028835 -2.868845 -4.345575 -0.121600 -0.000000 -81.056999 8.910334 1.293595 5.143475 8.661815 5.977288 -93.807579 3.512048 -4.615809 38.052000 -1.151897 -3.862979 -0.675726 -1.819900 0.000000 -51.367600
6.793595 15.345188 2.899053 55.630360 -86.578007 -7.409356 -10.842452 0.094482 -3.856939 -10.820495 7.124871 -56.661374 -0.426177 4.951667 67.464760 0.111413 -2.297111 -2.575323 -0.170900 0.000000 -77.483100 8.936492 1.213583 5.145582 8.834283 5.994830 -93.596396 3.541972 -4.620427 38.219279 -1.144016 -3.656836 -1.369674 -1.701700 0.000000 -50.928401
6.663094 15.376670 2.856070 57.681675 -86.471989 -9.202873 -10.809074 0.032432 -3.807812 -10.954842 7.014041 -57.365079 -0.256019 4.976625 68.185832 0.208991 -1.626263 -1.127175 -0.170000 -0.000000 -73.066800 8.968811 1.136316 5.152390 8.996754 5.964375 -93.412951 3.580549 -4.622229 38.309180 -1.127289 -3.445531 -1.942461 -1.598400 -0.000000 -50.640500
6.535271 15.408306 2.814274 59.699193 -86.343978 -10.938988 -10.767741 -0.030918 -3.754601 -11.147915 6.847695 -58.150463 -0.104359 5.006604 68.944648 0.315517 -0.874458 -0.065330 -0.118700 0.000000 -68.061099 9.004681 1.061261 5.163158 9.149420 5.903517 -93.256319 3.626834 -4.621265 38.333668 -1.100769 -3.221965 -2.412855 -1.506100 -0.000000 -50.498400
6.410300 15.439978 2.773905 61.628467 -86.207729 -12.563069 -10.719752 -0.094593 -3.698570 -11.388983 6.635067 -59.013420 0.027900 5.043459 69.725941 0.425870 -0.065841 0.581851 -0.026600 0.000000 -62.771000 9.041089 0.987374 5.178375 9.294217 5.833409 -93.122362 3.680718 -4.616324 38.300587 -1.065328 -2.982934 -2.809544 -1.421100 0.000001 -50.435700
6.288498 15.471738 2.734860 63.499592 -86.070763 -14.111754 -10.666028 -0.158800 -3.643710 -11.670746 6.386163 -59.936931 0.140504 5.087248 70.508692 0.536123 0.770315 0.819309 0.089400 0.000000 -57.538900 9.075471 0.914141 5.195690 9.428674 5.767574 -92.995991 3.740388 -4.605045 38.213847 -1.022931 -2.729448 -3.157914 -1.340700 -0.000000 -50.434900
6.169879 15.503503 2.697134 65.300176 -85.941881 -15.573948 -10.607574 -0.223397 -3.590589 -11.982217 6.107484 -60.913573 0.234223 5.137985 71.275506 0.643587 1.602338 0.679439 0.209600 -0.000001 -52.654000 9.105443 0.840574 5.215298 9.554433 5.721391 -92.867335 3.805665 -4.584937 38.073645 -0.976622 -2.466289 -3.483980 -1.263300 0.000001 -50.451600
6.054451 15.535211 2.660686 67.032725 -85.827122 -16.954495 -10.545164 -0.288547 -3.539442 -12.313105 5.804065 -61.935024 0.310020 5.194970 72.010029 0.746322 2.398392 0.214070 0.315200 0.000000 -48.330700 9.129233 0.766043 5.237151 9.672326 5.705322 -92.725597 3.876023 -4.553400 37.877384 -0.930023 -2.202018 -3.806380 -1.189000 -0.000001 -50.447800
5.942253 15.566923 2.625341 68.723949 -85.727171 -18.285351 -10.479240 -0.354497 -3.490352 -12.656512 5.477804 -62.990828 0.368796 5.256706 72.696443 0.842824 3.130034 -0.513682 0.391900 0.000000 -44.688200 9.145932 0.690651 5.260114 9.782351 5.721777 -92.560675 3.950450 -4.508483 37.622213 -0.886295 -1.945677 -4.134743 -1.118500 0.000001 -50.408100
5.832982 15.598477 2.590937 70.400527 -85.640374 -19.593871 -10.410317 -0.421003 -3.442512 -13.007159 5.128481 -64.071669 0.411413 5.321315 73.320570 0.931792 3.774394 -1.434637 0.431800 -0.000001 -41.771400 9.155633 0.614916 5.282866 9.885223 5.767713 -92.367101 4.028063 -4.449488 37.307324 -0.847677 -1.705162 -4.470015 -1.052900 -0.000001 -50.334501
5.726453 15.629748 2.557589 72.015949 -85.569604 -20.832276 -10.338393 -0.487941 -3.391697 -13.354062 4.752838 -65.182982 0.439579 5.387650 73.873324 1.012056 4.314933 -2.478424 0.433801 0.000000 -39.550100 9.158479 0.538420 5.307766 9.985425 5.846350 -92.146290 4.109396 -4.375240 36.924990 -0.816929 -1.492518 -4.805752 -0.994900 0.000000 -50.195599
5.622512 15.660785 2.524950 73.651358 -85.503414 -22.088697 -10.263640 -0.554580 -3.338480 -13.702425 4.347071 -66.307238 0.453955 5.452758 74.340299 1.082717 4.745193 -3.576675 0.402700 -0.000000 -37.978400 9.156125 0.463637 5.329659 10.081021 5.937980 -91.897428 4.192359 -4.288344 36.485444 -0.792680 -1.305167 -5.132201 -0.943700 0.000000 -50.032700
5.520794 15.691372 2.493032 75.297691 -85.438471 -23.351331 -10.186050 -0.620025 -3.279215 -14.048853 3.904969 -67.445295 0.456092 5.514806 74.713502 1.143300 5.066145 -4.669562 0.347200 -0.000001 -36.960500 9.150199 0.391270 5.348494 10.174834 6.034315 -91.628868 4.277052 -4.190899 35.992695 -0.774009 -1.143450 -5.436553 -0.900100 0.000001 -49.853000
5.421092 15.721381 2.461868 76.959570 -85.370050 -24.626049 -10.105553 -0.683297 -3.211467 -14.392803 3.421149 -68.594323 0.447294 5.572027 74.985756 1.193779 5.285608 -5.709683 0.277500 0.000000 -36.377500 9.142278 0.322413 5.362825 10.269138 6.124736 -91.349914 4.363353 -4.086152 35.456408 -0.758388 -1.001422 -5.707782 -0.863100 0.000000 -49.677400
5.323129 15.750626 2.431453 78.652983 -85.292876 -25.928364 -10.022192 -0.743037 -3.133540 -14.736078 2.891219 -69.750035 0.428396 5.622932 75.151924 1.234832 5.417282 -6.666650 0.202500 0.000000 -36.084000 9.134054 0.258230 5.370455 10.365825 6.197462 -91.070721 4.451289 -3.978300 34.891559 -0.741996 -0.867374 -5.938835 -0.830900 0.000001 -49.530500
5.226509 15.778798 2.402042 80.333738 -85.210865 -27.205822 -9.935831 -0.798614 -3.041333 -15.071476 2.311457 -70.922678 0.400595 5.667017 75.210655 1.267762 5.477351 -7.522605 0.129600 0.000000 -35.958001 9.126407 0.197510 5.374943 10.466548 6.257098 -90.805384 4.542027 -3.868998 34.302416 -0.723074 -0.736854 -6.124103 -0.803301 0.000000 -49.416800
5.131276 15.805877 2.373481 82.069067 -85.114788 -28.534067 -9.846748 -0.848104 -2.936867 -15.408443 1.682221 -72.095291 0.362950 5.703257 75.157638 1.294348 5.483819 -8.281608 0.062300 0.000000 -35.844700 9.120318 0.142474 5.369988 10.571867 6.286399 -90.560026 4.634966 -3.764452 33.718072 -0.695635 -0.585982 -6.270813 -0.775200 0.000000 -49.368800
5.037141 15.831437 2.346004 83.813275 -85.011347 -29.856584 -9.754825 -0.890971 -2.816714 -15.738745 1.002527 -73.280861 0.315570 5.732010 74.993421 1.316752 5.452867 -8.951649 0.002400 0.000001 -35.666399 9.115802 0.090995 5.361380 10.679860 6.298820 -90.348135 4.731108 -3.664688 33.139892 -0.659363 -0.413063 -6.381351 -0.746600 0.000000 -49.388000
